# xmcd
#
# Track frame offsets: 
#        150
#        14686
#        31298
#        45939
#        59533
#        76267
#        89326
#        105626
#        121049
#        136135
#        153630
#        169111
#        183465
#        195867
#        208916
#        226017
#        240151
#
# Disc length: 3424 seconds
#
# Revision: 0
# Processed by: cddbd v1.5.2PL0 Copyright (c) Steve Scherf et al.
# Submitted via: ExactAudioCopy v0.99pb4
#
DISCID=cd0d5e11
DTITLE=Various Artist - Vlaanderen Muziekland 2013 - CD 2
DYEAR=2013
DGENRE=Chanson
TTITLE0=De Romeo's - Houden Van Elkaar
TTITLE1=Christoff and René Froger - Alles Kan Een Mens Gelukkig Maken
TTITLE2=Will Tura - Een Vrouw Zoals Jij
TTITLE3=Lindsay - Een Liefde Voor Het Leven
TTITLE4=Bart Kaëll - Onder De Blote Hemel
TTITLE5=Maarten Cox - Onweerstaanbaar
TTITLE6=Willy Sommers - Que Sera
TTITLE7=Jo Vally - Ik Gaf Je M'n Hart
TTITLE8=Slongs Dievanongs - Lacht Nor Mij
TTITLE9=Jelle Cleymans - Zonnige Dagen
TTITLE10=Nicole and Hugo - Hier In Mijn Vlaamse Land
TTITLE11=Danny Fabry - Fitter Van Getwitter
TTITLE12=Luc Steeno - Het Wordt Nooit Meer Als Toen
TTITLE13=David Vandyck - Meisje Van M'n Dromen
TTITLE14=Sasha and Davy - Van Hier Naar Oneindig
TTITLE15=Gene Thomas - Dan Gaan We Dansen
TTITLE16=Jackobond - Wat Een Mooie Dag
EXTD=
EXTT0=
EXTT1=
EXTT2=
EXTT3=
EXTT4=
EXTT5=
EXTT6=
EXTT7=
EXTT8=
EXTT9=
EXTT10=
EXTT11=
EXTT12=
EXTT13=
EXTT14=
EXTT15=
EXTT16=
PLAYORDER=
